<svg width="21" height="20" viewBox="0 0 21 20" fill="none" xmlns="http://www.w3.org/2000/svg">
<path d="M14.8438 2.5C13.2305 2.5 11.818 3.19375 10.9375 4.36641C10.057 3.19375 8.64453 2.5 7.03125 2.5C5.74705 2.50145 4.51587 3.01223 3.6078 3.9203C2.69973 4.82837 2.18895 6.05955 2.1875 7.34375C2.1875 12.8125 10.2961 17.2391 10.6414 17.4219C10.7324 17.4708 10.8342 17.4965 10.9375 17.4965C11.0408 17.4965 11.1426 17.4708 11.2336 17.4219C11.5789 17.2391 19.6875 12.8125 19.6875 7.34375C19.6861 6.05955 19.1753 4.82837 18.2672 3.9203C17.3591 3.01223 16.1279 2.50145 14.8438 2.5ZM10.9375 16.1563C9.51094 15.325 3.4375 11.5383 3.4375 7.34375C3.43874 6.39101 3.81776 5.47765 4.49146 4.80396C5.16515 4.13026 6.07851 3.75124 7.03125 3.75C8.55078 3.75 9.82656 4.55938 10.3594 5.85938C10.4065 5.97401 10.4866 6.07205 10.5895 6.14105C10.6924 6.21005 10.8136 6.2469 10.9375 6.2469C11.0614 6.2469 11.1826 6.21005 11.2855 6.14105C11.3884 6.07205 11.4685 5.97401 11.5156 5.85938C12.0484 4.55703 13.3242 3.75 14.8438 3.75C15.7965 3.75124 16.7099 4.13026 17.3835 4.80396C18.0572 5.47765 18.4363 6.39101 18.4375 7.34375C18.4375 11.532 12.3625 15.3242 10.9375 16.1563Z" fill="#383A42"/>
</svg>
