<svg width="24" height="24" viewBox="0 0 24 24" fill="none" xmlns="http://www.w3.org/2000/svg">
<g clip-path="url(#clip0_267_7084)">
<path d="M13.6099 12.243C13.6038 12.5598 13.5039 12.8677 13.3227 13.1276C13.1415 13.3875 12.8872 13.5878 12.592 13.703C12.2969 13.8182 11.9742 13.8432 11.6648 13.7748C11.3554 13.7064 11.0733 13.5477 10.8542 13.3188C10.6352 13.0899 10.489 12.8011 10.4342 12.4891C10.3795 12.177 10.4186 11.8557 10.5467 11.5659C10.6747 11.2761 10.886 11.0308 11.1536 10.8612C11.4212 10.6915 11.7331 10.6052 12.0499 10.613C12.4708 10.6286 12.8691 10.8075 13.1603 11.1118C13.4515 11.4161 13.6128 11.8219 13.6099 12.243Z" fill="#D9D9D9"/>
<path d="M14.8634 7H9.1366C8.56994 7 8.02648 7.22224 7.62579 7.61784C7.2251 8.01343 7 8.54998 7 9.10943V14.8906C7 15.1676 7.05526 15.4419 7.16264 15.6978C7.27001 15.9537 7.42739 16.1863 7.62579 16.3822C7.8242 16.578 8.05973 16.7334 8.31896 16.8394C8.57818 16.9454 8.85601 17 9.1366 17H14.8634C15.144 17 15.4218 16.9454 15.681 16.8394C15.9403 16.7334 16.1758 16.578 16.3742 16.3822C16.5726 16.1863 16.73 15.9537 16.8373 15.6978C16.9447 15.4419 17 15.1676 17 14.8906V9.11985C17.0011 8.84204 16.9467 8.56674 16.8398 8.30973C16.733 8.05273 16.5758 7.81906 16.3773 7.62213C16.1788 7.4252 15.9429 7.26888 15.6831 7.16212C15.4234 7.05537 15.1448 7.00027 14.8634 7ZM11.9995 15.049C11.4326 15.0616 10.8747 14.9072 10.3971 14.6054C9.91943 14.3037 9.54371 13.8682 9.31783 13.3547C9.09196 12.8412 9.02619 12.2729 9.12891 11.7223C9.23162 11.1717 9.49817 10.6638 9.89454 10.2635C10.2909 9.86312 10.7991 9.58844 11.3543 9.47449C11.9095 9.36054 12.4865 9.41249 13.0116 9.62371C13.5368 9.83493 13.9862 10.1958 14.3027 10.6604C14.6192 11.1249 14.7883 11.672 14.7884 12.2319C14.7928 12.5977 14.724 12.9607 14.5862 13.3003C14.4484 13.6399 14.2441 13.9493 13.9851 14.2109C13.7261 14.4725 13.4174 14.6812 13.0767 14.825C12.736 14.9688 12.37 15.0449 11.9995 15.049ZM15.0988 9.41584C15.0291 9.41586 14.9602 9.40215 14.896 9.37552C14.8317 9.34889 14.7735 9.30988 14.7248 9.26077C14.676 9.21166 14.6377 9.15343 14.612 9.08951C14.5863 9.02558 14.5738 8.95724 14.5752 8.88848C14.5752 8.74862 14.6315 8.61448 14.7316 8.51559C14.8318 8.41669 14.9677 8.36113 15.1093 8.36113C15.251 8.36113 15.3869 8.41669 15.487 8.51559C15.5872 8.61448 15.6435 8.74862 15.6435 8.88848C15.6456 8.96294 15.6314 9.03696 15.6018 9.10548C15.5722 9.174 15.528 9.2354 15.4722 9.28548C15.4163 9.33556 15.3502 9.37314 15.2783 9.39564C15.2064 9.41814 15.1304 9.42503 15.0555 9.41584H15.0988Z" fill="#D9D9D9"/>
<path d="M12.06 -9.39338e-05C8.87744 -0.0160067 5.81891 1.233 3.55725 3.47215C1.29559 5.71131 0.016063 8.7572 0.000150207 11.9398C-0.0157626 15.1223 1.23324 18.1808 3.4724 20.4425C5.71156 22.7042 8.75744 23.9837 11.94 23.9996C13.5158 24.0075 15.0778 23.7049 16.5367 23.1091C17.9956 22.5134 19.3229 21.6361 20.4428 20.5274C21.5626 19.4186 22.4531 18.1002 23.0635 16.6473C23.6738 15.1945 23.992 13.6356 23.9999 12.0598C24.0077 10.4839 23.7051 8.92195 23.1094 7.46304C22.5136 6.00414 21.6363 4.67687 20.5276 3.55701C19.4189 2.43715 18.1005 1.54663 16.6476 0.936301C15.1947 0.325972 13.6358 0.00778528 12.06 -9.39338e-05ZM19.3475 15.2421C19.3509 15.7805 19.2473 16.3141 19.0429 16.8122C18.8384 17.3102 18.5372 17.7627 18.1565 18.1434C17.7759 18.5242 17.3235 18.8256 16.8255 19.0302C16.3275 19.2347 15.7939 19.3385 15.2556 19.3353H8.86684C8.32858 19.3383 7.79506 19.2345 7.29717 19.03C6.79928 18.8254 6.3469 18.5241 5.96623 18.1436C5.58556 17.763 5.28415 17.3107 5.07945 16.8129C4.87475 16.3151 4.77083 15.7816 4.77369 15.2433V8.8534C4.77035 8.31504 4.8739 7.78138 5.07834 7.28334C5.28278 6.78531 5.58404 6.33281 5.96467 5.95207C6.34529 5.57134 6.7977 5.26994 7.29568 5.06535C7.79365 4.86077 8.32729 4.75706 8.86564 4.76025H15.2556C15.7938 4.75706 16.3273 4.86073 16.8252 5.06524C17.3231 5.26975 17.7755 5.57104 18.1561 5.95165C18.5367 6.33226 18.838 6.78462 19.0425 7.28251C19.247 7.78041 19.3507 8.31394 19.3475 8.8522V15.2421Z" fill="#D9D9D9"/>
</g>
<defs>
<clipPath id="clip0_267_7084">
<rect width="24" height="24" fill="white"/>
</clipPath>
</defs>
</svg>
