<svg width="150" height="56" viewBox="0 0 150 56" fill="none" xmlns="http://www.w3.org/2000/svg">
<g clip-path="url(#clip0_267_1446)">
<path d="M12.121 38.2124L0.0625 2.37585H8.8279L17.7386 30.2702L26.6492 2.37585H35.4147L23.3562 38.2124H12.121ZM43.4929 9.49469C42.1047 9.49469 40.9584 9.04271 40.0547 8.13871C39.1509 7.23475 38.6985 6.16936 38.6985 4.9425C38.6985 3.65109 39.1509 2.55341 40.0547 1.64943C40.9584 0.745449 42.1047 0.293457 43.4929 0.293457C44.881 0.293457 46.0276 0.745449 46.9314 1.64943C47.8352 2.55341 48.2872 3.65109 48.2872 4.9425C48.2872 6.16936 47.8352 7.23475 46.9314 8.13871C46.0276 9.04271 44.881 9.49469 43.4929 9.49469ZM39.3281 38.2124V12.5456H47.6092V38.2124H39.3281ZM66.6252 38.6964C64.3327 38.6964 62.3473 38.3255 60.6684 37.5828C58.9899 36.8077 57.5852 35.7908 56.4551 34.5317C55.3577 33.2405 54.5344 31.8035 53.9854 30.2217C53.469 28.6397 53.2106 27.0093 53.2106 25.3305C53.2106 23.7163 53.469 22.1181 53.9854 20.5362C54.5018 18.9542 55.293 17.5337 56.3584 16.2746C57.4239 14.9832 58.7797 13.9662 60.4262 13.2236C62.1051 12.4488 64.0905 12.0614 66.383 12.0614C68.8363 12.0614 70.9837 12.5941 72.8239 13.6595C74.6961 14.6926 76.149 16.2261 77.1824 18.2601C78.2478 20.2618 78.7804 22.6993 78.7804 25.5727V27.5098H61.5402C61.6372 28.8335 62.1051 29.9957 62.9445 30.9964C63.8163 31.9652 65.0434 32.4493 66.6252 32.4493C67.8194 32.4493 68.7238 32.2394 69.3372 31.8197C69.9829 31.3679 70.4188 30.9159 70.6445 30.4639C70.8705 30.0118 70.9837 29.7858 70.9837 29.7858H78.5867C78.5867 29.7858 78.5062 30.0926 78.3445 30.7061C78.1831 31.2871 77.8766 32.0296 77.4245 32.9336C76.9722 33.8054 76.3106 34.6933 75.4389 35.5971C74.5671 36.4689 73.405 37.2116 71.9521 37.825C70.5313 38.4061 68.7558 38.6964 66.6252 38.6964ZM61.4917 22.7154H70.8382C70.7735 21.198 70.3056 20.0519 69.4339 19.2771C68.5944 18.5022 67.529 18.1148 66.2375 18.1148C64.9784 18.1148 63.8968 18.5022 62.993 19.2771C62.1213 20.0519 61.6207 21.198 61.4917 22.7154ZM95.5489 38.6964C93.3534 38.6964 91.6099 38.3576 90.3187 37.6795C89.0596 37.0014 88.1393 36.162 87.5582 35.1612C86.9772 34.1281 86.6059 33.095 86.4446 32.0619C86.2829 30.9964 86.2024 30.0926 86.2024 29.3499V19.1318H81.9406V12.5456H86.2024V6.20163H94.4835V12.5456H99.7137V19.1318H94.4835V29.1077C94.4835 30.0765 94.7418 30.8512 95.2582 31.4323C95.8073 31.9813 96.7272 32.2556 98.0187 32.2556C98.5677 32.2556 99.0518 32.2235 99.4715 32.1589C99.8909 32.0619 100.101 32.0134 100.101 32.0134V38.2124C100.101 38.2124 99.6329 38.2929 98.6967 38.4543C97.7927 38.6159 96.7434 38.6964 95.5489 38.6964Z" fill="#E90506"/>
<mask id="mask0_267_1446" style="mask-type:luminance" maskUnits="userSpaceOnUse" x="39" y="44" width="62" height="12">
<path d="M100.26 44.165H39.9297V56.0001H100.26V44.165Z" fill="white"/>
</mask>
<g mask="url(#mask0_267_1446)">
<path d="M39.9395 55.756V44.1992H44.5635C45.4061 44.1992 46.1254 44.3502 46.7215 44.6521C47.3277 44.9541 47.7901 45.3706 48.1088 45.9014C48.4376 46.4326 48.6021 47.0468 48.6021 47.7445C48.6021 48.5046 48.4119 49.1708 48.0317 49.7435C47.6516 50.3055 47.1121 50.7169 46.4132 50.9772L48.8948 55.756H46.2591L43.9934 51.3052H42.3131V55.756H39.9395ZM44.5329 46.2764H42.3131V49.3374H44.5329C45.0568 49.3374 45.4679 49.1916 45.7658 48.9C46.0639 48.6085 46.2129 48.2494 46.2129 47.8225C46.2129 47.3852 46.0639 47.0209 45.7658 46.7293C45.4679 46.4274 45.0568 46.2764 44.5329 46.2764ZM52.4439 55.9122C51.8683 55.9122 51.3906 55.7875 51.0104 55.5375C50.6404 55.2875 50.363 54.9544 50.1779 54.5379C49.9932 54.1112 49.9005 53.632 49.9005 53.1012V47.479H52.228V52.6327C52.228 53.0282 52.3307 53.3512 52.5363 53.6009C52.7418 53.8405 53.0449 53.9602 53.4458 53.9602C53.7847 53.9602 54.052 53.8768 54.2472 53.7103C54.4527 53.5437 54.6016 53.3301 54.6943 53.07C54.7867 52.8097 54.8328 52.5337 54.8328 52.2421V47.479H57.1759V55.756H54.8328V54.5849H54.7405C54.5658 54.9076 54.2933 55.2096 53.9236 55.4907C53.5639 55.7719 53.0706 55.9122 52.4439 55.9122ZM58.9621 55.756V47.479H61.3049V48.6659H61.382C61.4746 48.4994 61.608 48.3118 61.7829 48.1036C61.9677 47.8955 62.2093 47.7131 62.5072 47.5569C62.8154 47.4007 63.206 47.3228 63.6785 47.3228C64.3159 47.3228 64.8346 47.4738 65.2356 47.7757C65.6362 48.0673 65.9289 48.4471 66.114 48.9156C66.299 49.3737 66.3914 49.8581 66.3914 50.3682V55.756H64.0486V50.7743C64.0486 50.3786 63.9406 50.0299 63.725 49.7279C63.5195 49.426 63.1855 49.275 62.7231 49.275C62.3738 49.275 62.0964 49.3581 61.8906 49.5247C61.6851 49.6913 61.5361 49.9049 61.4437 50.1652C61.3514 50.4253 61.3049 50.7013 61.3049 50.9928V55.756H58.9621ZM68.1741 55.756V47.479H70.5169V48.6659H70.594C70.6866 48.4994 70.82 48.3118 70.9949 48.1036C71.1799 47.8955 71.4213 47.7131 71.7192 47.5569C72.0274 47.4007 72.418 47.3228 72.8908 47.3228C73.5279 47.3228 74.0466 47.4738 74.4476 47.7757C74.8482 48.0673 75.1412 48.4471 75.326 48.9156C75.511 49.3737 75.6037 49.8581 75.6037 50.3682V55.756H73.2606V50.7743C73.2606 50.3786 73.1526 50.0299 72.937 49.7279C72.7315 49.426 72.3975 49.275 71.9351 49.275C71.5858 49.275 71.3084 49.3581 71.1029 49.5247C70.8971 49.6913 70.7481 49.9049 70.6557 50.1652C70.5634 50.4253 70.5169 50.7013 70.5169 50.9928V55.756H68.1741ZM81.365 55.9122C80.646 55.9122 80.0242 55.7927 79.5 55.5531C78.9761 55.3031 78.5445 54.9752 78.2053 54.5693C77.8662 54.1528 77.6093 53.6895 77.4346 53.1791C77.2704 52.6691 77.1881 52.1434 77.1881 51.6019C77.1881 51.0814 77.2652 50.5711 77.4193 50.0714C77.5836 49.5614 77.8301 49.0978 78.1592 48.6815C78.498 48.265 78.9247 47.9371 79.4385 47.6975C79.9624 47.4478 80.579 47.3228 81.2879 47.3228C82.0382 47.3228 82.7009 47.4894 83.2765 47.8225C83.8622 48.1556 84.3194 48.6504 84.6482 49.3062C84.977 49.9516 85.1415 50.7377 85.1415 51.6643V52.2421H79.5462C79.577 52.7421 79.7468 53.1739 80.0551 53.5385C80.3735 53.9028 80.8102 54.085 81.365 54.085C81.6837 54.085 81.9406 54.0382 82.1357 53.9444C82.3413 53.8405 82.5006 53.7259 82.6135 53.6009C82.7266 53.4655 82.8037 53.346 82.8447 53.2418C82.886 53.1376 82.9065 53.0856 82.9065 53.0856H85.0645C85.0645 53.0856 85.0388 53.1843 84.9874 53.3824C84.9461 53.5697 84.8538 53.8041 84.7097 54.085C84.566 54.3661 84.3552 54.6473 84.0778 54.9284C83.8105 55.2096 83.4561 55.4437 83.0144 55.6313C82.5725 55.8186 82.0226 55.9122 81.365 55.9122ZM79.5462 50.8055H82.8912C82.8603 50.2328 82.6905 49.8059 82.3823 49.5247C82.0742 49.2435 81.6941 49.1033 81.2418 49.1033C80.7897 49.1033 80.4044 49.2542 80.0857 49.5562C79.7673 49.8474 79.5874 50.264 79.5462 50.8055ZM86.8241 55.756V47.479H89.1516V48.6815H89.2287C89.321 48.4627 89.4495 48.2494 89.614 48.0413C89.7783 47.8329 90.0043 47.6611 90.2921 47.5257C90.5799 47.3904 90.9497 47.3228 91.402 47.3228C91.628 47.3228 91.8079 47.3384 91.9415 47.3696C92.0749 47.3904 92.1418 47.4007 92.1418 47.4007V49.7435C92.1418 49.7435 92.0648 49.7279 91.9106 49.6965C91.7666 49.6653 91.5766 49.6497 91.3402 49.6497C90.6105 49.6497 90.0661 49.8526 89.7064 50.2588C89.3467 50.6545 89.1669 51.3052 89.1669 52.211V55.756H86.8241ZM96.8692 55.9122C96.1912 55.9122 95.6309 55.8186 95.1892 55.6313C94.7473 55.4437 94.3928 55.2148 94.1255 54.944C93.8689 54.6628 93.6735 54.3869 93.5398 54.1164C93.4166 53.8353 93.3343 53.6009 93.2933 53.4135C93.2624 53.2262 93.2471 53.1324 93.2471 53.1324H95.4204C95.4204 53.1324 95.4357 53.1843 95.4666 53.2885C95.4975 53.3927 95.5642 53.5125 95.667 53.6479C95.7801 53.783 95.9392 53.9028 96.145 54.007C96.3505 54.1112 96.6279 54.1632 96.9772 54.1632C97.4087 54.1632 97.7017 54.0746 97.8559 53.8976C98.0201 53.7207 98.1024 53.5437 98.1024 53.3668C98.1024 52.9918 97.7993 52.7421 97.1931 52.6171L96.0832 52.3983C95.6107 52.3048 95.1635 52.1694 94.7421 51.9925C94.3313 51.8048 93.9971 51.5499 93.7404 51.2272C93.4936 50.8938 93.3704 50.4672 93.3704 49.9464C93.3704 49.4468 93.4988 48.9991 93.7557 48.6033C94.0126 48.2078 94.3775 47.8955 94.85 47.6663C95.333 47.4374 95.9086 47.3228 96.5765 47.3228C97.2032 47.3228 97.7222 47.4111 98.1333 47.5884C98.5544 47.7549 98.8884 47.9682 99.1352 48.2286C99.3817 48.4783 99.5667 48.7335 99.69 48.9939C99.8133 49.2435 99.8903 49.4572 99.9212 49.6341C99.9622 49.8007 99.9827 49.8841 99.9827 49.8841H97.8865C97.8865 49.8841 97.8559 49.8163 97.7941 49.6809C97.7323 49.5351 97.6039 49.3945 97.4087 49.2594C97.2237 49.1137 96.9362 49.0406 96.5456 49.0406C96.145 49.0406 95.8673 49.124 95.7131 49.2906C95.559 49.4468 95.4819 49.6133 95.4819 49.7903C95.4819 49.9984 95.5694 50.1546 95.744 50.2588C95.9291 50.363 96.1655 50.4461 96.453 50.5087L97.5167 50.7273C98.2975 50.8834 98.9398 51.1594 99.4435 51.5551C99.9469 51.9402 100.199 52.5025 100.199 53.2418C100.199 53.7414 100.07 54.1944 99.8133 54.6005C99.5563 55.0066 99.1814 55.3294 98.6881 55.5687C98.1947 55.7979 97.5886 55.9122 96.8692 55.9122Z" fill="#FBAE07"/>
</g>
<path d="M140.806 8.55206C140.274 8.14791 138.959 8.20218 138.656 8.94412C138.542 9.22161 138.697 9.4629 138.634 9.71625C138.582 9.93945 138.399 10.241 138.365 10.428C138.222 11.1277 138.165 11.1639 138.605 11.7068C139.302 12.5694 140.188 12.5573 139.491 13.8965C139.148 14.56 138.519 15.9232 138.056 16.3816C138.005 16.4299 137.913 16.7014 137.885 16.7617C137.53 16.4178 137.228 16.0318 136.839 15.7543C136.559 15.5553 136.05 15.501 135.839 15.1692C135.564 14.7409 135.753 14.2463 135.353 13.8C135.044 13.4622 134.472 13.5707 134.227 13.2812C134.152 13.1967 134.101 13.1123 134.061 13.0278C134.181 13.0761 134.29 13.1183 134.381 13.058C134.621 12.9072 134.529 12.5694 134.724 12.3522C134.741 12.2738 134.695 12.1954 134.707 12.1109C135.015 11.93 134.758 11.3509 135.278 11.3871C134.987 10.3014 135.21 9.98768 135.193 9.09491C135.141 6.4348 134.09 6.02461 133.003 5.89795V5.92811C132.054 5.80142 130.986 6.29004 130.506 7.26724C130.014 8.26857 130.397 9.46893 129.991 10.3255C129.574 11.2122 128.465 11.0131 127.779 10.9407C127.35 10.8985 126.945 10.796 126.499 10.8744C126.059 10.9528 125.641 11.3389 125.241 11.3811C124.561 11.4535 123.835 10.4522 123.041 10.3134C122.201 10.1686 121.326 10.4341 120.509 10.3677C119.714 10.3074 118.851 9.87912 118.074 10.3496C117.399 10.7538 117.119 11.6887 116.742 12.4849C116.285 13.4621 115.747 14.3911 115.279 15.3622C114.856 16.2369 114.233 16.8461 113.827 17.7027C113.627 18.1309 113.547 18.6859 113.375 19.1383C113.215 19.5545 112.821 20.0129 112.718 20.4533C112.615 20.9238 112.581 21.527 113.072 21.527C113.021 21.9251 113.152 22.1242 113.455 22.0699C113.855 23.0169 114.638 23.1858 115.284 22.3353C115.896 21.527 115.999 21.0082 115.896 19.9707C115.633 17.3709 117.422 16.5988 118.851 15.7181C119.451 15.3441 120.137 14.8556 120.537 14.1015C121.349 15.2295 122.835 15.4708 123.881 14.9762C123.944 16.828 123.086 19.4942 122.458 21.2495C121.749 23.228 120.543 24.6335 119.503 26.3285C119.091 26.998 119.142 27.4625 118.994 28.2165C118.834 29.0428 118.479 29.3748 118.022 30.0805C117.096 31.51 116.376 33.1568 115.633 34.7612C115.233 35.624 114.947 36.6735 114.335 37.3672C113.678 38.1151 112.764 38.2418 112.038 38.8933C110.717 40.0754 110.466 42.3494 109.523 44.0205C109.06 44.8348 108.528 45.4863 107.997 46.186C107.722 46.548 107.511 47.0243 107.088 47.0728C106.785 47.1089 106.476 46.7169 106.139 46.7287C105.184 46.759 104.996 48.0196 104.864 49.0631C104.727 50.149 104.441 50.8727 104.053 51.844C103.596 52.9961 103.635 53.744 104.053 54.8478C104.344 55.6321 105.253 56.7963 105.265 55.2098C105.265 54.5765 104.99 54.6729 105.316 53.9371C105.51 53.5087 105.802 53.2013 106.019 52.7972C106.505 51.8923 106.773 51.1504 107.419 50.3904C108.74 48.84 110.1 47.3684 111.615 46.1257C113.004 44.9855 114.141 43.399 115.627 42.5847C116.445 42.1324 116.559 41.5412 117.136 40.7151C117.651 39.985 118.359 39.4845 118.908 38.8269C119.48 38.1393 120.023 37.4093 120.566 36.6796C120.417 36.9509 120.326 37.3369 120.32 37.8798C120.314 39.1404 120.543 39.9547 120.269 41.1913C120.063 42.1084 119.709 43.0916 119.64 44.0687C119.554 45.3053 119.96 46.2764 120.44 44.7323C120.749 43.7492 121.04 42.977 121.554 42.1627C122.115 41.282 122.812 40.7029 123.372 39.8101C123.898 38.9715 124.378 38.5374 125.116 38.1994C126.693 37.4757 128.397 36.8424 130.105 36.5407C131.3 36.3297 133.501 35.4548 133.941 33.7901C134.141 33.0361 134.467 31.9384 134.21 31.1844C133.89 30.2612 133.175 29.8511 132.541 29.3927C130.911 28.2226 129.768 26.799 127.871 26.3767C127.556 26.3104 126.91 26.2863 126.773 25.7796C126.636 25.2608 127.082 25.0798 127.356 24.742C127.951 24.0182 128.425 23.4391 129.042 22.7816C129.437 22.3654 129.534 21.8467 129.842 21.3762C130.14 20.9238 130.494 20.8032 130.883 20.5076C131.529 20.019 131.889 19.0418 132.598 18.6799C133.541 18.2033 134.141 19.1081 134.918 19.651C135.535 20.0793 136.222 20.3266 136.873 20.5438C138.279 21.0263 139.548 21.4184 140.714 20.2482C140.794 20.1336 141.257 19.4278 141.103 17.582C141.148 16.5686 141.32 15.4346 141.446 14.4152C141.577 13.4018 141.583 12.3824 141.703 11.3569C141.829 10.3074 141.566 9.13114 140.794 8.53999M128.511 32.2036C127.905 32.9033 126.962 33.3317 126.253 33.9772C125.624 34.5441 124.807 35.4669 124.11 35.8471C123.155 36.3658 121.537 35.63 120.772 36.4201C121.315 35.6843 121.858 34.9482 122.423 34.2546C123.006 33.5427 123.492 32.7766 124.264 32.5113C125.098 32.2218 125.893 32.5717 126.693 32.4631C127.31 32.3786 127.893 32.3846 128.511 32.2097" fill="#FFF7E6"/>
<path d="M144.837 8.55206C144.305 8.14791 142.99 8.20218 142.688 8.94412C142.573 9.22161 142.728 9.4629 142.665 9.71625C142.613 9.93945 142.43 10.241 142.396 10.428C142.253 11.1277 142.196 11.1639 142.636 11.7068C143.333 12.5694 144.219 12.5573 143.522 13.8965C143.179 14.56 142.55 15.9232 142.088 16.3816C142.036 16.4299 141.945 16.7014 141.916 16.7617C141.562 16.4178 141.259 16.0318 140.87 15.7543C140.59 15.5553 140.081 15.501 139.87 15.1692C139.595 14.7409 139.784 14.2463 139.384 13.8C139.075 13.4622 138.504 13.5707 138.258 13.2812C138.183 13.1967 138.132 13.1123 138.092 13.0278C138.212 13.0761 138.321 13.1183 138.412 13.058C138.652 12.9072 138.561 12.5694 138.755 12.3522C138.772 12.2738 138.726 12.1954 138.738 12.1109C139.047 11.93 138.789 11.3509 139.309 11.3871C139.018 10.3014 139.241 9.98768 139.224 9.09491C139.172 6.4348 138.121 6.02461 137.035 5.89795V5.92811C136.086 5.80142 135.017 6.29004 134.537 7.26724C134.045 8.26857 134.428 9.46893 134.022 10.3255C133.605 11.2122 132.496 11.0131 131.81 10.9407C131.382 10.8985 130.976 10.796 130.53 10.8744C130.09 10.9528 129.673 11.3389 129.273 11.3811C128.592 11.4535 127.866 10.4522 127.072 10.3134C126.232 10.1686 125.357 10.4341 124.54 10.3677C123.745 10.3074 122.882 9.87912 122.105 10.3496C121.43 10.7538 121.15 11.6887 120.773 12.4849C120.316 13.4621 119.778 14.3911 119.31 15.3622C118.887 16.2369 118.264 16.8461 117.858 17.7027C117.658 18.1309 117.578 18.6859 117.407 19.1383C117.246 19.5545 116.852 20.0129 116.749 20.4533C116.646 20.9238 116.612 21.527 117.103 21.527C117.052 21.9251 117.183 22.1242 117.487 22.0699C117.887 23.0169 118.67 23.1858 119.315 22.3353C119.927 21.527 120.03 21.0082 119.927 19.9707C119.664 17.3709 121.453 16.5988 122.882 15.7181C123.482 15.3441 124.168 14.8556 124.569 14.1015C125.38 15.2295 126.866 15.4708 127.912 14.9762C127.975 16.828 127.118 19.4942 126.489 21.2495C125.78 23.228 124.574 24.6335 123.534 26.3285C123.122 26.998 123.174 27.4625 123.025 28.2165C122.865 29.0428 122.511 29.3748 122.053 30.0805C121.127 31.51 120.407 33.1568 119.664 34.7612C119.264 35.624 118.978 36.6735 118.367 37.3672C117.709 38.1151 116.795 38.2418 116.069 38.8933C114.749 40.0754 114.497 42.3494 113.554 44.0205C113.091 44.8348 112.559 45.4863 112.028 46.186C111.753 46.548 111.542 47.0243 111.119 47.0728C110.816 47.1089 110.507 46.7169 110.17 46.7287C109.216 46.759 109.027 48.0196 108.895 49.0631C108.758 50.149 108.473 50.8727 108.084 51.844C107.627 52.9961 107.667 53.744 108.084 54.8478C108.375 55.6321 109.284 56.7963 109.296 55.2098C109.296 54.5765 109.021 54.6729 109.347 53.9371C109.541 53.5087 109.833 53.2013 110.05 52.7972C110.536 51.8923 110.805 51.1504 111.451 50.3904C112.771 48.84 114.131 47.3684 115.646 46.1257C117.035 44.9855 118.172 43.399 119.658 42.5847C120.476 42.1324 120.59 41.5412 121.168 40.7151C121.682 39.985 122.391 39.4845 122.939 38.8269C123.511 38.1393 124.054 37.4093 124.597 36.6796C124.448 36.9509 124.357 37.3369 124.351 37.8798C124.345 39.1404 124.574 39.9547 124.3 41.1913C124.094 42.1084 123.739 43.0916 123.671 44.0687C123.585 45.3053 123.991 46.2764 124.471 44.7323C124.78 43.7492 125.071 42.977 125.586 42.1627C126.146 41.282 126.843 40.7029 127.403 39.8101C127.929 38.9715 128.409 38.5374 129.147 38.1994C130.724 37.4757 132.428 36.8424 134.137 36.5407C135.331 36.3297 137.532 35.4548 137.972 33.7901C138.172 33.0361 138.498 31.9384 138.241 31.1844C137.92 30.2612 137.206 29.8511 136.572 29.3927C134.943 28.2226 133.8 26.799 131.902 26.3767C131.588 26.3104 130.942 26.2863 130.804 25.7796C130.667 25.2608 131.113 25.0798 131.388 24.742C131.982 24.0182 132.456 23.4391 133.074 22.7816C133.468 22.3654 133.565 21.8467 133.874 21.3762C134.171 20.9238 134.525 20.8032 134.914 20.5076C135.56 20.019 135.92 19.0418 136.629 18.6799C137.572 18.2033 138.172 19.1081 138.95 19.651C139.567 20.0793 140.253 20.3266 140.904 20.5438C142.31 21.0263 143.579 21.4184 144.745 20.2482C144.825 20.1336 145.288 19.4278 145.134 17.582C145.18 16.5686 145.351 15.4346 145.477 14.4152C145.608 13.4018 145.614 12.3824 145.734 11.3569C145.86 10.3074 145.597 9.13114 144.825 8.53999M132.542 32.2036C131.936 32.9033 130.993 33.3317 130.284 33.9772C129.656 34.5441 128.838 35.4669 128.141 35.8471C127.186 36.3658 125.569 35.63 124.803 36.4201C125.346 35.6843 125.889 34.9482 126.455 34.2546C127.038 33.5427 127.524 32.7766 128.295 32.5113C129.13 32.2218 129.924 32.5717 130.724 32.4631C131.342 32.3786 131.925 32.3846 132.542 32.2097" fill="#FFECC3"/>
<path d="M148.868 8.55206C148.336 8.14791 147.022 8.20218 146.719 8.94412C146.605 9.22161 146.759 9.4629 146.696 9.71625C146.645 9.93945 146.462 10.241 146.428 10.428C146.285 11.1277 146.228 11.1639 146.667 11.7068C147.365 12.5694 148.251 12.5573 147.554 13.8965C147.21 14.56 146.582 15.9232 146.119 16.3816C146.067 16.4299 145.976 16.7014 145.947 16.7617C145.593 16.4178 145.29 16.0318 144.901 15.7543C144.621 15.5553 144.113 15.501 143.901 15.1692C143.627 14.7409 143.815 14.2463 143.415 13.8C143.107 13.4622 142.535 13.5707 142.289 13.2812C142.215 13.1967 142.163 13.1123 142.123 13.0278C142.243 13.0761 142.352 13.1183 142.443 13.058C142.684 12.9072 142.592 12.5694 142.786 12.3522C142.804 12.2738 142.758 12.1954 142.769 12.1109C143.078 11.93 142.821 11.3509 143.341 11.3871C143.049 10.3014 143.272 9.98768 143.255 9.09491C143.204 6.4348 142.152 6.02461 141.066 5.89795V5.92811C140.117 5.80142 139.048 6.29004 138.568 7.26724C138.077 8.26857 138.46 9.46893 138.054 10.3255C137.636 11.2122 136.528 11.0131 135.842 10.9407C135.413 10.8985 135.007 10.796 134.561 10.8744C134.121 10.9528 133.704 11.3389 133.304 11.3811C132.624 11.4535 131.898 10.4522 131.103 10.3134C130.263 10.1686 129.389 10.4341 128.571 10.3677C127.777 10.3074 126.914 9.87912 126.136 10.3496C125.462 10.7538 125.182 11.6887 124.804 12.4849C124.347 13.4621 123.81 14.3911 123.341 15.3622C122.918 16.2369 122.295 16.8461 121.889 17.7027C121.689 18.1309 121.609 18.6859 121.438 19.1383C121.278 19.5545 120.883 20.0129 120.78 20.4533C120.678 20.9238 120.643 21.527 121.135 21.527C121.084 21.9251 121.215 22.1242 121.518 22.0699C121.918 23.0169 122.701 23.1858 123.347 22.3353C123.959 21.527 124.061 21.0082 123.959 19.9707C123.696 17.3709 125.485 16.5988 126.914 15.7181C127.514 15.3441 128.2 14.8556 128.6 14.1015C129.411 15.2295 130.898 15.4708 131.943 14.9762C132.006 16.828 131.149 19.4942 130.52 21.2495C129.811 23.228 128.605 24.6335 127.565 26.3285C127.154 26.998 127.205 27.4625 127.056 28.2165C126.897 29.0428 126.542 29.3748 126.085 30.0805C125.159 31.51 124.439 33.1568 123.696 34.7612C123.296 35.624 123.01 36.6735 122.398 37.3672C121.741 38.1151 120.826 38.2418 120.1 38.8933C118.78 40.0754 118.529 42.3494 117.585 44.0205C117.122 44.8348 116.591 45.4863 116.059 46.186C115.785 46.548 115.573 47.0243 115.15 47.0728C114.847 47.1089 114.539 46.7169 114.202 46.7287C113.247 46.759 113.059 48.0196 112.927 49.0631C112.79 50.149 112.504 50.8727 112.115 51.844C111.658 52.9961 111.698 53.744 112.115 54.8478C112.407 55.6321 113.316 56.7963 113.327 55.2098C113.327 54.5765 113.053 54.6729 113.379 53.9371C113.573 53.5087 113.864 53.2013 114.082 52.7972C114.567 51.8923 114.836 51.1504 115.482 50.3904C116.802 48.84 118.163 47.3684 119.677 46.1257C121.066 44.9855 122.204 43.399 123.69 42.5847C124.507 42.1324 124.622 41.5412 125.199 40.7151C125.713 39.985 126.422 39.4845 126.971 38.8269C127.542 38.1393 128.085 37.4093 128.628 36.6796C128.48 36.9509 128.388 37.3369 128.383 37.8798C128.377 39.1404 128.605 39.9547 128.331 41.1913C128.125 42.1084 127.771 43.0916 127.702 44.0687C127.617 45.3053 128.022 46.2764 128.503 44.7323C128.811 43.7492 129.103 42.977 129.617 42.1627C130.177 41.282 130.875 40.7029 131.435 39.8101C131.961 38.9715 132.441 38.5374 133.178 38.1994C134.756 37.4757 136.459 36.8424 138.168 36.5407C139.363 36.3297 141.563 35.4548 142.003 33.7901C142.203 33.0361 142.529 31.9384 142.272 31.1844C141.952 30.2612 141.237 29.8511 140.603 29.3927C138.974 28.2226 137.831 26.799 135.933 26.3767C135.619 26.3104 134.973 26.2863 134.836 25.7796C134.698 25.2608 135.144 25.0798 135.419 24.742C136.013 24.0182 136.488 23.4391 137.105 22.7816C137.499 22.3654 137.597 21.8467 137.905 21.3762C138.202 20.9238 138.557 20.8032 138.946 20.5076C139.591 20.019 139.951 19.0418 140.66 18.6799C141.603 18.2033 142.204 19.1081 142.981 19.651C143.598 20.0793 144.284 20.3266 144.936 20.5438C146.342 21.0263 147.611 21.4184 148.777 20.2482C148.857 20.1336 149.32 19.4278 149.166 17.582C149.211 16.5686 149.383 15.4346 149.508 14.4152C149.64 13.4018 149.646 12.3824 149.766 11.3569C149.891 10.3074 149.628 9.13114 148.857 8.53999M136.573 32.2036C135.967 32.9033 135.024 33.3317 134.316 33.9772C133.687 34.5441 132.87 35.4669 132.172 35.8471C131.218 36.3658 129.6 35.63 128.834 36.4201C129.377 35.6843 129.92 34.9482 130.486 34.2546C131.069 33.5427 131.555 32.7766 132.327 32.5113C133.161 32.2218 133.955 32.5717 134.756 32.4631C135.373 32.3786 135.956 32.3846 136.573 32.2097" fill="#FBAE07"/>
</g>
<defs>
<clipPath id="clip0_267_1446">
<rect width="149.814" height="56" fill="white"/>
</clipPath>
</defs>
</svg>
