<svg width="25" height="24" viewBox="0 0 25 24" fill="none" xmlns="http://www.w3.org/2000/svg">
<path d="M12.5 2.25C9.91505 2.25298 7.43683 3.28116 5.609 5.109C3.78116 6.93683 2.75298 9.41505 2.75 12V17.25C2.75 17.8467 2.98705 18.419 3.40901 18.841C3.83097 19.2629 4.40326 19.5 5 19.5C5.47797 19.4992 5.94339 19.3469 6.32938 19.065C7.46844 18.2372 9.4625 17.25 12.5 17.25C15.5375 17.25 17.5316 18.2363 18.6697 19.0641C19.005 19.3099 19.4018 19.458 19.8161 19.4919C20.2305 19.5259 20.6461 19.4444 21.0169 19.2565C21.3878 19.0686 21.6993 18.7817 21.917 18.4275C22.1346 18.0733 22.2499 17.6657 22.25 17.25V12C22.247 9.41505 21.2188 6.93683 19.391 5.109C17.5632 3.28116 15.0849 2.25298 12.5 2.25ZM4.25 12C4.2526 10.1088 4.90378 8.27568 6.09487 6.80666C7.28595 5.33764 8.94486 4.3216 10.7947 3.92813C9.30838 6.06462 8.37815 8.53795 8.08813 11.1244C6.73743 11.5177 5.44629 12.0923 4.25 12.8325V12ZM20.75 17.25C20.7523 17.3881 20.7152 17.524 20.6432 17.6419C20.5711 17.7597 20.4671 17.8547 20.3431 17.9156C20.2184 17.98 20.0781 18.008 19.9382 17.9966C19.7984 17.9851 19.6645 17.9347 19.5519 17.8509C18.2338 16.8938 15.9406 15.75 12.5 15.75C9.05937 15.75 6.76625 16.8938 5.44812 17.8519C5.3355 17.9356 5.20164 17.9861 5.06176 17.9975C4.92189 18.0089 4.78161 17.9809 4.65688 17.9166C4.53278 17.8555 4.42862 17.7604 4.35657 17.6424C4.28452 17.5244 4.24755 17.3883 4.25 17.25V14.6316C5.66287 13.6225 7.24972 12.8826 8.93094 12.4491C8.96274 12.4432 8.99407 12.4351 9.02469 12.4247C11.3079 11.8584 13.6949 11.8584 15.9781 12.4247C16.0088 12.435 16.0401 12.4434 16.0719 12.45C17.7521 12.8833 19.3381 13.6229 20.75 14.6316V17.25ZM20.75 12.8316C19.5537 12.0913 18.2626 11.5167 16.9119 11.1234C16.6217 8.53734 15.6915 6.06435 14.2053 3.92813C16.0551 4.3216 17.7141 5.33764 18.9051 6.80666C20.0962 8.27568 20.7474 10.1088 20.75 12V12.8316Z" fill="#B6BAC3"/>
</svg>
