<svg width="33" height="24" viewBox="0 0 33 24" fill="none" xmlns="http://www.w3.org/2000/svg">
<path d="M7.17983 4.07812L7.26483 3.5625C7.32574 3.19993 7.56103 2.8665 7.92653 2.62483C8.29203 2.38316 8.76258 2.24987 9.24983 2.25H23.7498C24.2371 2.24987 24.7076 2.38316 25.0731 2.62483C25.4386 2.8665 25.6739 3.19993 25.7348 3.5625L25.8198 4.07719C25.8287 4.13022 25.8224 4.18407 25.8013 4.23512C25.7802 4.28618 25.7448 4.33326 25.6975 4.37321C25.6501 4.41316 25.5919 4.44506 25.5268 4.46676C25.4617 4.48847 25.3911 4.49948 25.3198 4.49906H7.67608C7.60525 4.49906 7.53523 4.48778 7.47065 4.46595C7.40607 4.44413 7.34841 4.41226 7.30149 4.37246C7.25457 4.33266 7.21946 4.28584 7.19849 4.2351C7.17752 4.18436 7.17116 4.13085 7.17983 4.07812ZM21.6248 6C21.8478 6.64374 22.3491 7.21384 23.0503 7.621C23.7516 8.02815 24.613 8.24937 25.4998 8.25H25.9486C26.0199 8.25042 26.0904 8.23941 26.1555 8.2177C26.2207 8.196 26.2789 8.1641 26.3262 8.12415C26.3736 8.0842 26.409 8.03712 26.4301 7.98606C26.4512 7.93501 26.4575 7.88116 26.4486 7.82812L26.1986 6.32812C26.1833 6.237 26.1239 6.15325 26.0318 6.09277C25.9396 6.03229 25.821 5.99928 25.6986 6H21.6248ZM7.05108 8.25H7.49983C8.38664 8.24937 9.24811 8.02815 9.94933 7.621C10.6505 7.21384 11.1519 6.64374 11.3748 6H7.30108C7.17863 5.99928 7.06007 6.03229 6.96791 6.09277C6.87575 6.15325 6.81639 6.237 6.80108 6.32812L6.55108 7.82812C6.54217 7.88116 6.54848 7.93501 6.56959 7.98606C6.59069 8.03712 6.62611 8.0842 6.67346 8.12415C6.72081 8.1641 6.779 8.196 6.84412 8.2177C6.90925 8.23941 6.97982 8.25042 7.05108 8.25ZM28.4848 20.0625L26.8198 10.0781C26.8045 9.987 26.7452 9.90325 26.653 9.84277C26.5608 9.78229 26.4423 9.74928 26.3198 9.75H25.4998C24.0826 9.7485 22.7116 9.37133 21.6293 8.68512C20.5469 7.99892 19.8228 7.04786 19.5848 6H17.4998V9.72469C17.503 9.91818 17.4085 10.1054 17.2354 10.2489C17.0622 10.3923 16.8231 10.4813 16.5661 10.4981C16.4293 10.5049 16.2921 10.4906 16.163 10.456C16.0339 10.4213 15.9157 10.3672 15.8157 10.2968C15.7158 10.2265 15.6361 10.1415 15.5818 10.0471C15.5274 9.9527 15.4995 9.85094 15.4998 9.74812V6H13.4148C13.1769 7.04786 12.4528 7.99892 11.3704 8.68512C10.288 9.37133 8.9171 9.7485 7.49983 9.75H6.67608C6.55363 9.74928 6.43507 9.78229 6.34291 9.84277C6.25075 9.90325 6.19139 9.987 6.17608 10.0781L4.51483 20.0625C4.4699 20.3332 4.52425 20.608 4.67204 20.8573C4.81983 21.1066 5.05547 21.3209 5.35358 21.4772C5.70496 21.6582 6.1223 21.7535 6.54858 21.75H11.5861C12.0309 21.7501 12.463 21.6389 12.8141 21.4342C13.1652 21.2294 13.4153 20.9427 13.5248 20.6194L16.4998 11.9944L19.4736 20.6137C19.5817 20.9383 19.8314 21.2263 20.1829 21.4322C20.5344 21.6381 20.9676 21.7499 21.4136 21.75H26.4511C26.8771 21.7542 27.2945 21.6596 27.6461 21.4791C27.9446 21.3226 28.1805 21.108 28.3283 20.8583C28.4761 20.6087 28.5302 20.3335 28.4848 20.0625Z" fill="#B6BAC3"/>
</svg>
