<svg width="21" height="20" viewBox="0 0 21 20" fill="none" xmlns="http://www.w3.org/2000/svg">
<path d="M8.40625 16.875C8.40625 17.1222 8.33294 17.3639 8.19559 17.5695C8.05824 17.775 7.86301 17.9352 7.6346 18.0299C7.4062 18.1245 7.15486 18.1492 6.91239 18.101C6.66991 18.0527 6.44718 17.9337 6.27237 17.7589C6.09755 17.5841 5.9785 17.3613 5.93027 17.1189C5.88204 16.8764 5.90679 16.6251 6.0014 16.3966C6.09601 16.1682 6.25623 15.973 6.46179 15.8357C6.66735 15.6983 6.90902 15.625 7.15625 15.625C7.48777 15.625 7.80571 15.7567 8.04013 15.9911C8.27455 16.2255 8.40625 16.5435 8.40625 16.875ZM15.2812 15.625C15.034 15.625 14.7923 15.6983 14.5868 15.8357C14.3812 15.973 14.221 16.1682 14.1264 16.3966C14.0318 16.6251 14.007 16.8764 14.0553 17.1189C14.1035 17.3613 14.2226 17.5841 14.3974 17.7589C14.5722 17.9337 14.7949 18.0527 15.0374 18.101C15.2799 18.1492 15.5312 18.1245 15.7596 18.0299C15.988 17.9352 16.1832 17.775 16.3206 17.5695C16.4579 17.3639 16.5312 17.1222 16.5312 16.875C16.5312 16.5435 16.3996 16.2255 16.1651 15.9911C15.9307 15.7567 15.6128 15.625 15.2812 15.625ZM19.0039 5.80859L16.775 13.0516C16.6583 13.4355 16.4209 13.7716 16.098 14.01C15.7752 14.2484 15.3841 14.3764 14.9828 14.375H7.47422C7.06717 14.3735 6.67156 14.2401 6.34665 13.9949C6.02173 13.7497 5.78499 13.4059 5.67188 13.0148L2.84531 3.125H1.53125C1.36549 3.125 1.20652 3.05915 1.08931 2.94194C0.972098 2.82473 0.90625 2.66576 0.90625 2.5C0.90625 2.33424 0.972098 2.17527 1.08931 2.05806C1.20652 1.94085 1.36549 1.875 1.53125 1.875H2.84531C3.11673 1.8759 3.38055 1.96468 3.59729 2.12805C3.81403 2.29141 3.97204 2.52058 4.04766 2.78125L4.68125 5H18.4062C18.5041 4.99996 18.6005 5.02288 18.6878 5.06691C18.7752 5.11094 18.851 5.17485 18.9091 5.25351C18.9672 5.33216 19.0061 5.42336 19.0226 5.51977C19.039 5.61618 19.0326 5.7151 19.0039 5.80859ZM17.5602 6.25H5.03828L6.87344 12.6719C6.91077 12.8024 6.9896 12.9172 7.09799 12.999C7.20639 13.0807 7.33845 13.125 7.47422 13.125H14.9828C15.1165 13.125 15.2468 13.0822 15.3544 13.0027C15.4619 12.9233 15.5412 12.8114 15.5805 12.6836L17.5602 6.25Z" fill="#383A42"/>
</svg>
