<svg width="33" height="24" viewBox="0 0 33 24" fill="none" xmlns="http://www.w3.org/2000/svg">
<path d="M32.5 18.7884C32.4895 19.1802 32.2738 19.5532 31.8995 19.8267C31.5253 20.1002 31.0225 20.2522 30.5 20.2499H18.9137C18.3865 20.2507 17.8803 20.0946 17.5062 19.8159L4.0975 10.0706L4.08625 10.0621C3.71146 9.78085 3.50093 9.39947 3.50093 9.00182C3.50093 8.60416 3.71146 8.22278 4.08625 7.9415L12.0862 1.93026L12.105 1.91713C12.4816 1.64503 12.9859 1.49513 13.5088 1.49986C14.0317 1.5046 14.531 1.6636 14.8987 1.94244L15.925 2.71869C16.2761 2.98237 16.4837 3.33461 16.5075 3.70682C16.6487 5.84713 18.6212 7.29369 21.6562 7.48119C22.1556 7.51333 22.6211 7.68382 22.962 7.95941C23.3029 8.235 23.4947 8.59593 23.5 8.97182V10.1249C23.5 10.2244 23.4473 10.3198 23.3536 10.3901C23.2598 10.4604 23.1326 10.4999 23 10.4999H19.5C19.3629 10.4997 19.2272 10.5206 19.1014 10.5614C18.9755 10.6022 18.8622 10.6619 18.7684 10.7369C18.6746 10.8119 18.6024 10.9005 18.5562 10.9973C18.5101 11.0941 18.4909 11.197 18.5 11.2996C18.5224 11.4924 18.6411 11.6717 18.8323 11.8016C19.0236 11.9315 19.2733 12.0023 19.5312 11.9999H23.0312C23.1547 11.9994 23.274 12.033 23.3663 12.0945C23.4586 12.1559 23.5174 12.2408 23.5312 12.3328C23.5644 12.5611 23.6332 12.7858 23.7362 13.0021C23.7621 13.0585 23.7696 13.1187 23.7582 13.1777C23.7469 13.2367 23.7169 13.2928 23.6708 13.3414C23.6248 13.3899 23.5639 13.4296 23.4933 13.457C23.4228 13.4844 23.3445 13.4988 23.265 13.499H20.5C20.3629 13.4988 20.2272 13.5197 20.1014 13.5605C19.9755 13.6012 19.8622 13.6609 19.7684 13.7359C19.6746 13.8109 19.6024 13.8996 19.5562 13.9964C19.5101 14.0932 19.4909 14.1961 19.5 14.2987C19.5221 14.4916 19.6407 14.671 19.832 14.8009C20.0234 14.9308 20.2732 15.0016 20.5312 14.999H27.5C28.161 14.999 28.8155 15.0973 29.4256 15.2882C30.0357 15.4791 30.5892 15.7588 31.0542 16.1112C31.5192 16.4636 31.8864 16.8817 32.1346 17.3412C32.3827 17.8007 32.5069 18.2926 32.5 18.7884ZM9.5 16.4999C9.5 16.301 9.39464 16.1103 9.20711 15.9696C9.01957 15.829 8.76522 15.7499 8.5 15.7499H4.5C4.23478 15.7499 3.98043 15.829 3.79289 15.9696C3.60536 16.1103 3.5 16.301 3.5 16.4999C3.5 16.6989 3.60536 16.8896 3.79289 17.0303C3.98043 17.1709 4.23478 17.2499 4.5 17.2499H8.5C8.76522 17.2499 9.01957 17.1709 9.20711 17.0303C9.39464 16.8896 9.5 16.6989 9.5 16.4999ZM12.5 18.7499H6.5C6.23478 18.7499 5.98043 18.829 5.79289 18.9696C5.60536 19.1103 5.5 19.301 5.5 19.4999C5.5 19.6989 5.60536 19.8896 5.79289 20.0303C5.98043 20.1709 6.23478 20.2499 6.5 20.2499H12.5C12.7652 20.2499 13.0196 20.1709 13.2071 20.0303C13.3946 19.8896 13.5 19.6989 13.5 19.4999C13.5 19.301 13.3946 19.1103 13.2071 18.9696C13.0196 18.829 12.7652 18.7499 12.5 18.7499Z" fill="#FBAE07"/>
</svg>
