<svg width="33" height="24" viewBox="0 0 33 24" fill="none" xmlns="http://www.w3.org/2000/svg">
<path d="M31.449 5.73938L24.979 3.09375C24.8324 3.03292 24.6678 3.00068 24.5002 3H20.5002C20.235 3 19.9807 3.07902 19.7931 3.21967C19.6056 3.36032 19.5002 3.55109 19.5002 3.75C19.5002 4.34674 19.1842 4.91903 18.6216 5.34099C18.059 5.76295 17.2959 6 16.5002 6C15.7046 6 14.9415 5.76295 14.3789 5.34099C13.8163 4.91903 13.5002 4.34674 13.5002 3.75C13.5002 3.55109 13.3949 3.36032 13.2073 3.21967C13.0198 3.07902 12.7655 3 12.5002 3H8.50024C8.33228 3.00052 8.16721 3.03276 8.02024 3.09375L1.55149 5.73938C1.09037 5.92214 0.7447 6.2346 0.590281 6.60823C0.435862 6.98186 0.485295 7.38617 0.727743 7.7325L3.13649 11.1834C3.31164 11.4315 3.57417 11.6389 3.89551 11.7828C4.21685 11.9268 4.58469 12.0019 4.95899 12H7.50024V19.5C7.50024 19.8978 7.71096 20.2794 8.08603 20.5607C8.4611 20.842 8.96981 21 9.50024 21H23.5002C24.0307 21 24.5394 20.842 24.9145 20.5607C25.2895 20.2794 25.5002 19.8978 25.5002 19.5V12H28.0427C28.417 12.0019 28.7849 11.9268 29.1062 11.7828C29.4276 11.6389 29.6901 11.4315 29.8652 11.1834L32.274 7.7325C32.5163 7.38605 32.5656 6.98165 32.4109 6.60801C32.2563 6.23437 31.9103 5.92198 31.449 5.73938ZM4.95899 10.5C4.94052 10.5007 4.92234 10.4963 4.90774 10.4878L2.51149 7.05562L7.50024 5.01375V10.5H4.95899ZM28.0927 10.4869C28.0858 10.4916 28.0777 10.4951 28.0689 10.4974C28.0601 10.4996 28.0508 10.5005 28.0415 10.5H25.5002V5.01375L30.4902 7.05562L28.0927 10.4869Z" fill="#B6BAC3"/>
</svg>
