<svg width="21" height="20" viewBox="0 0 21 20" fill="none" xmlns="http://www.w3.org/2000/svg">
<path d="M19.0094 16.5627C17.8196 14.5056 15.986 13.0306 13.8461 12.3314C14.9046 11.7013 15.7269 10.7412 16.1869 9.59845C16.6469 8.45573 16.719 7.19361 16.3923 6.00592C16.0655 4.81823 15.3579 3.77064 14.3781 3.02402C13.3984 2.2774 12.2006 1.87305 10.9688 1.87305C9.73696 1.87305 8.53919 2.2774 7.55942 3.02402C6.57965 3.77064 5.87206 4.81823 5.54529 6.00592C5.21853 7.19361 5.29068 8.45573 5.75064 9.59845C6.21061 10.7412 7.03297 11.7013 8.09143 12.3314C5.95159 13.0299 4.118 14.5049 2.92815 16.5627C2.88452 16.6338 2.85558 16.713 2.84304 16.7955C2.83049 16.878 2.8346 16.9622 2.85513 17.0431C2.87565 17.124 2.91216 17.2 2.96252 17.2665C3.01288 17.3331 3.07606 17.3889 3.14833 17.4306C3.2206 17.4724 3.3005 17.4992 3.38332 17.5096C3.46613 17.5199 3.55018 17.5136 3.63051 17.491C3.71084 17.4683 3.78583 17.4298 3.85103 17.3777C3.91624 17.3256 3.97036 17.261 4.01018 17.1877C5.48206 14.6439 8.08362 13.1252 10.9688 13.1252C13.8539 13.1252 16.4555 14.6439 17.9274 17.1877C17.9672 17.261 18.0213 17.3256 18.0865 17.3777C18.1517 17.4298 18.2267 17.4683 18.307 17.491C18.3874 17.5136 18.4714 17.5199 18.5542 17.5096C18.6371 17.4992 18.717 17.4724 18.7892 17.4306C18.8615 17.3889 18.9247 17.3331 18.975 17.2665C19.0254 17.2 19.0619 17.124 19.0824 17.0431C19.103 16.9622 19.1071 16.878 19.0945 16.7955C19.082 16.713 19.053 16.6338 19.0094 16.5627ZM6.59378 7.50017C6.59378 6.63488 6.85037 5.78902 7.3311 5.06955C7.81183 4.35009 8.49511 3.78933 9.29454 3.4582C10.094 3.12707 10.9736 3.04043 11.8223 3.20924C12.671 3.37805 13.4505 3.79473 14.0624 4.40658C14.6742 5.01843 15.0909 5.79799 15.2597 6.64665C15.4285 7.49532 15.3419 8.37499 15.0108 9.17441C14.6796 9.97384 14.1189 10.6571 13.3994 11.1379C12.6799 11.6186 11.8341 11.8752 10.9688 11.8752C9.80884 11.8739 8.69676 11.4126 7.87656 10.5924C7.05635 9.77219 6.59502 8.66011 6.59378 7.50017Z" fill="#383A42"/>
</svg>
